<svg width="20" height="21" viewBox="0 0 20 21" fill="none" xmlns="http://www.w3.org/2000/svg">
<path d="M10.0003 11.3332C10.4606 11.3332 10.8337 10.9601 10.8337 10.4998C10.8337 10.0396 10.4606 9.6665 10.0003 9.6665C9.54009 9.6665 9.16699 10.0396 9.16699 10.4998C9.16699 10.9601 9.54009 11.3332 10.0003 11.3332Z" stroke="#64748B" stroke-width="2" stroke-linecap="round" stroke-linejoin="round"/>
<path d="M10.0003 11.3332C10.4606 11.3332 10.8337 10.9601 10.8337 10.4998C10.8337 10.0396 10.4606 9.6665 10.0003 9.6665C9.54009 9.6665 9.16699 10.0396 9.16699 10.4998C9.16699 10.9601 9.54009 11.3332 10.0003 11.3332Z" stroke="black" stroke-opacity="0.2" stroke-width="2" stroke-linecap="round" stroke-linejoin="round"/>
<path d="M10.0003 11.3332C10.4606 11.3332 10.8337 10.9601 10.8337 10.4998C10.8337 10.0396 10.4606 9.6665 10.0003 9.6665C9.54009 9.6665 9.16699 10.0396 9.16699 10.4998C9.16699 10.9601 9.54009 11.3332 10.0003 11.3332Z" stroke="black" stroke-opacity="0.2" stroke-width="2" stroke-linecap="round" stroke-linejoin="round"/>
<path d="M10.0003 17.1667C10.4606 17.1667 10.8337 16.7936 10.8337 16.3333C10.8337 15.8731 10.4606 15.5 10.0003 15.5C9.54009 15.5 9.16699 15.8731 9.16699 16.3333C9.16699 16.7936 9.54009 17.1667 10.0003 17.1667Z" stroke="#64748B" stroke-width="2" stroke-linecap="round" stroke-linejoin="round"/>
<path d="M10.0003 17.1667C10.4606 17.1667 10.8337 16.7936 10.8337 16.3333C10.8337 15.8731 10.4606 15.5 10.0003 15.5C9.54009 15.5 9.16699 15.8731 9.16699 16.3333C9.16699 16.7936 9.54009 17.1667 10.0003 17.1667Z" stroke="black" stroke-opacity="0.2" stroke-width="2" stroke-linecap="round" stroke-linejoin="round"/>
<path d="M10.0003 17.1667C10.4606 17.1667 10.8337 16.7936 10.8337 16.3333C10.8337 15.8731 10.4606 15.5 10.0003 15.5C9.54009 15.5 9.16699 15.8731 9.16699 16.3333C9.16699 16.7936 9.54009 17.1667 10.0003 17.1667Z" stroke="black" stroke-opacity="0.2" stroke-width="2" stroke-linecap="round" stroke-linejoin="round"/>
<path d="M10.0003 5.49992C10.4606 5.49992 10.8337 5.12682 10.8337 4.66659C10.8337 4.20635 10.4606 3.83325 10.0003 3.83325C9.54009 3.83325 9.16699 4.20635 9.16699 4.66659C9.16699 5.12682 9.54009 5.49992 10.0003 5.49992Z" stroke="#64748B" stroke-width="2" stroke-linecap="round" stroke-linejoin="round"/>
<path d="M10.0003 5.49992C10.4606 5.49992 10.8337 5.12682 10.8337 4.66659C10.8337 4.20635 10.4606 3.83325 10.0003 3.83325C9.54009 3.83325 9.16699 4.20635 9.16699 4.66659C9.16699 5.12682 9.54009 5.49992 10.0003 5.49992Z" stroke="black" stroke-opacity="0.2" stroke-width="2" stroke-linecap="round" stroke-linejoin="round"/>
<path d="M10.0003 5.49992C10.4606 5.49992 10.8337 5.12682 10.8337 4.66659C10.8337 4.20635 10.4606 3.83325 10.0003 3.83325C9.54009 3.83325 9.16699 4.20635 9.16699 4.66659C9.16699 5.12682 9.54009 5.49992 10.0003 5.49992Z" stroke="black" stroke-opacity="0.2" stroke-width="2" stroke-linecap="round" stroke-linejoin="round"/>
</svg>
