<svg width="122" height="39" viewBox="0 0 122 39" fill="none" xmlns="http://www.w3.org/2000/svg">
<line x1="2" y1="22.75" x2="119" y2="22.75" stroke="#E2E8F0" stroke-linecap="round" stroke-dasharray="4 4"/>
<path d="M1.5 36C9 33 15.5 17.25 20.5 17.25C26 17.25 25.5 29.25 32.5 29.25C39.5 29.25 40 37.75 44 37.75C47.5 37.75 47.5 20.75 53.5 20.75C59.5 20.75 60 9.75 64.5 9.75C69.5 9.75 71 30.75 76.5 30.75C83 30.75 87.5 8.25 94 7.75C98 7.75 100.5 17.25 105 17.25C109.5 17.25 115 1.25 120.5 1.25" stroke="#2563EB" stroke-width="2" stroke-linecap="round"/>
</svg>
