<svg width="40" height="40" viewBox="0 0 40 40" fill="none" xmlns="http://www.w3.org/2000/svg">
<circle opacity="0.5" cx="20" cy="20" r="19.5" stroke="white"/>
<g clip-path="url(#clip0_1764_8009)">
<path d="M20.1747 18.1852C21.9747 18.5713 23.7468 17.425 24.1329 15.625C24.5189 13.825 23.3727 12.0529 21.5727 11.6668C19.7727 11.2807 18.0005 12.427 17.6145 14.227C17.2284 16.027 18.3746 17.7992 20.1747 18.1852Z" stroke="white" stroke-width="1.5" stroke-linecap="round" stroke-linejoin="round"/>
<path d="M13.9461 25.372C15.7461 25.758 17.5183 24.6118 17.9044 22.8118C18.2904 21.0118 17.1442 19.2396 15.3442 18.8536C13.5442 18.4675 11.772 19.6137 11.3859 21.4138C10.9999 23.2138 12.1461 24.9859 13.9461 25.372Z" stroke="white" stroke-width="1.5" stroke-linecap="round" stroke-linejoin="round"/>
<path d="M22.908 27.2944C24.7081 27.6804 26.4802 26.5342 26.8663 24.7342C27.2523 22.9341 26.1061 21.162 24.3061 20.7759C22.5061 20.3899 20.7339 21.5361 20.3479 23.3361C19.9618 25.1361 21.108 26.9083 22.908 27.2944Z" stroke="white" stroke-width="1.5" stroke-linecap="round" stroke-linejoin="round"/>
</g>
<defs>
<clipPath id="clip0_1764_8009">
<rect width="20" height="20" fill="white" transform="translate(12.3193 7.12524) rotate(12.1051)"/>
</clipPath>
</defs>
</svg>
