<svg width="41" height="40" viewBox="0 0 41 40" fill="none" xmlns="http://www.w3.org/2000/svg">
<circle opacity="0.5" cx="20.5" cy="20" r="19.5" stroke="white"/>
<path d="M18.5003 19.1667C20.3413 19.1667 21.8337 17.6743 21.8337 15.8333C21.8337 13.9924 20.3413 12.5 18.5003 12.5C16.6594 12.5 15.167 13.9924 15.167 15.8333C15.167 17.6743 16.6594 19.1667 18.5003 19.1667Z" stroke="white" stroke-width="1.5" stroke-linecap="round" stroke-linejoin="round"/>
<path d="M13.5 27.5V25.8333C13.5 24.9493 13.8512 24.1014 14.4763 23.4763C15.1014 22.8512 15.9493 22.5 16.8333 22.5H20.1667C21.0507 22.5 21.8986 22.8512 22.5237 23.4763C23.1488 24.1014 23.5 24.9493 23.5 25.8333V27.5" stroke="white" stroke-width="1.5" stroke-linecap="round" stroke-linejoin="round"/>
<path d="M24.333 19.1667L25.9997 20.8333L29.333 17.5" stroke="white" stroke-width="1.5" stroke-linecap="round" stroke-linejoin="round"/>
</svg>
