<svg width="22" height="22" viewBox="0 0 22 22" fill="none" xmlns="http://www.w3.org/2000/svg">
<path d="M8.25033 3.66675H4.58366C4.0774 3.66675 3.66699 4.07715 3.66699 4.58341V8.25008C3.66699 8.75634 4.0774 9.16675 4.58366 9.16675H8.25033C8.75659 9.16675 9.16699 8.75634 9.16699 8.25008V4.58341C9.16699 4.07715 8.75659 3.66675 8.25033 3.66675Z" stroke="#64748B" stroke-width="1.5" stroke-linecap="round" stroke-linejoin="round"/>
<path d="M8.25033 3.66675H4.58366C4.0774 3.66675 3.66699 4.07715 3.66699 4.58341V8.25008C3.66699 8.75634 4.0774 9.16675 4.58366 9.16675H8.25033C8.75659 9.16675 9.16699 8.75634 9.16699 8.25008V4.58341C9.16699 4.07715 8.75659 3.66675 8.25033 3.66675Z" stroke="black" stroke-opacity="0.2" stroke-width="1.5" stroke-linecap="round" stroke-linejoin="round"/>
<path d="M8.25033 3.66675H4.58366C4.0774 3.66675 3.66699 4.07715 3.66699 4.58341V8.25008C3.66699 8.75634 4.0774 9.16675 4.58366 9.16675H8.25033C8.75659 9.16675 9.16699 8.75634 9.16699 8.25008V4.58341C9.16699 4.07715 8.75659 3.66675 8.25033 3.66675Z" stroke="black" stroke-opacity="0.2" stroke-width="1.5" stroke-linecap="round" stroke-linejoin="round"/>
<path d="M17.417 3.66675H13.7503C13.2441 3.66675 12.8337 4.07715 12.8337 4.58341V8.25008C12.8337 8.75634 13.2441 9.16675 13.7503 9.16675H17.417C17.9233 9.16675 18.3337 8.75634 18.3337 8.25008V4.58341C18.3337 4.07715 17.9233 3.66675 17.417 3.66675Z" stroke="#64748B" stroke-width="1.5" stroke-linecap="round" stroke-linejoin="round"/>
<path d="M17.417 3.66675H13.7503C13.2441 3.66675 12.8337 4.07715 12.8337 4.58341V8.25008C12.8337 8.75634 13.2441 9.16675 13.7503 9.16675H17.417C17.9233 9.16675 18.3337 8.75634 18.3337 8.25008V4.58341C18.3337 4.07715 17.9233 3.66675 17.417 3.66675Z" stroke="black" stroke-opacity="0.2" stroke-width="1.5" stroke-linecap="round" stroke-linejoin="round"/>
<path d="M17.417 3.66675H13.7503C13.2441 3.66675 12.8337 4.07715 12.8337 4.58341V8.25008C12.8337 8.75634 13.2441 9.16675 13.7503 9.16675H17.417C17.9233 9.16675 18.3337 8.75634 18.3337 8.25008V4.58341C18.3337 4.07715 17.9233 3.66675 17.417 3.66675Z" stroke="black" stroke-opacity="0.2" stroke-width="1.5" stroke-linecap="round" stroke-linejoin="round"/>
<path d="M8.25033 12.8334H4.58366C4.0774 12.8334 3.66699 13.2438 3.66699 13.7501V17.4167C3.66699 17.923 4.0774 18.3334 4.58366 18.3334H8.25033C8.75659 18.3334 9.16699 17.923 9.16699 17.4167V13.7501C9.16699 13.2438 8.75659 12.8334 8.25033 12.8334Z" stroke="#64748B" stroke-width="1.5" stroke-linecap="round" stroke-linejoin="round"/>
<path d="M8.25033 12.8334H4.58366C4.0774 12.8334 3.66699 13.2438 3.66699 13.7501V17.4167C3.66699 17.923 4.0774 18.3334 4.58366 18.3334H8.25033C8.75659 18.3334 9.16699 17.923 9.16699 17.4167V13.7501C9.16699 13.2438 8.75659 12.8334 8.25033 12.8334Z" stroke="black" stroke-opacity="0.2" stroke-width="1.5" stroke-linecap="round" stroke-linejoin="round"/>
<path d="M8.25033 12.8334H4.58366C4.0774 12.8334 3.66699 13.2438 3.66699 13.7501V17.4167C3.66699 17.923 4.0774 18.3334 4.58366 18.3334H8.25033C8.75659 18.3334 9.16699 17.923 9.16699 17.4167V13.7501C9.16699 13.2438 8.75659 12.8334 8.25033 12.8334Z" stroke="black" stroke-opacity="0.2" stroke-width="1.5" stroke-linecap="round" stroke-linejoin="round"/>
<path d="M17.417 12.8334H13.7503C13.2441 12.8334 12.8337 13.2438 12.8337 13.7501V17.4167C12.8337 17.923 13.2441 18.3334 13.7503 18.3334H17.417C17.9233 18.3334 18.3337 17.923 18.3337 17.4167V13.7501C18.3337 13.2438 17.9233 12.8334 17.417 12.8334Z" stroke="#64748B" stroke-width="1.5" stroke-linecap="round" stroke-linejoin="round"/>
<path d="M17.417 12.8334H13.7503C13.2441 12.8334 12.8337 13.2438 12.8337 13.7501V17.4167C12.8337 17.923 13.2441 18.3334 13.7503 18.3334H17.417C17.9233 18.3334 18.3337 17.923 18.3337 17.4167V13.7501C18.3337 13.2438 17.9233 12.8334 17.417 12.8334Z" stroke="black" stroke-opacity="0.2" stroke-width="1.5" stroke-linecap="round" stroke-linejoin="round"/>
<path d="M17.417 12.8334H13.7503C13.2441 12.8334 12.8337 13.2438 12.8337 13.7501V17.4167C12.8337 17.923 13.2441 18.3334 13.7503 18.3334H17.417C17.9233 18.3334 18.3337 17.923 18.3337 17.4167V13.7501C18.3337 13.2438 17.9233 12.8334 17.417 12.8334Z" stroke="black" stroke-opacity="0.2" stroke-width="1.5" stroke-linecap="round" stroke-linejoin="round"/>
</svg>
