<svg width="320" height="147" viewBox="0 0 320 147" fill="none" xmlns="http://www.w3.org/2000/svg">
<path d="M60.5 46C47 46 25.5 80.4999 1.99999 80.4999L1.99999 146.5L318.5 146.5L318.5 62.9998C300 62.9998 282.5 1.50002 265 1.50002C247.5 1.50002 230.5 70.5 215.5 70.5C200.5 70.5 181.5 31 165 31C150.5 31 128 92.9999 112 92.9999C100 92.9999 75.5 46 60.5 46Z" fill="url(#paint0_linear_1743_11449)"/>
<path d="M1.99999 80.4999C25.5 80.4999 47 46 60.5 46C75.5 46 100 92.9999 112 92.9999C128 92.9999 150.5 31 165 31C181.5 31 200.5 70.5 215.5 70.5C230.5 70.5 247.5 1.50003 265 1.50003C282.5 1.50003 300 62.9998 318.5 62.9998" stroke="#2563EB" stroke-width="2.5" stroke-linecap="round"/>
<defs>
<linearGradient id="paint0_linear_1743_11449" x1="160" y1="-370" x2="160" y2="152.5" gradientUnits="userSpaceOnUse">
<stop stop-color="#2563EB" stop-opacity="0.5"/>
<stop offset="1" stop-color="#2563EB" stop-opacity="0"/>
</linearGradient>
</defs>
</svg>
