<svg width="22" height="22" viewBox="0 0 22 22" fill="none" xmlns="http://www.w3.org/2000/svg">
<rect width="22" height="22" fill="white"/>
<path d="M2.75 18.3334L3.94167 14.7584C2.91174 13.2352 2.53916 11.4313 2.8932 9.68222C3.24724 7.93312 4.30381 6.35781 5.86645 5.2492C7.4291 4.14058 9.39149 3.5741 11.3887 3.65508C13.386 3.73606 15.2822 4.45899 16.7248 5.68946C18.1675 6.91993 19.0583 8.57419 19.2317 10.3447C19.4052 12.1152 18.8494 13.8814 17.6677 15.315C16.4861 16.7486 14.7589 17.7519 12.8075 18.1385C10.856 18.5251 8.81302 18.2686 7.05833 17.4168L2.75 18.3334Z" fill="#2563EB"/>
<path d="M11 11V11.0092V11Z" fill="#2563EB"/>
<path d="M11 11V11.0092" stroke="white" stroke-width="2" stroke-linecap="round" stroke-linejoin="round"/>
<path d="M7.33398 11V11.0092V11Z" fill="#2563EB"/>
<path d="M7.33398 11V11.0092" stroke="white" stroke-width="2" stroke-linecap="round" stroke-linejoin="round"/>
<path d="M14.666 11V11.0092V11Z" fill="#2563EB"/>
<path d="M14.666 11V11.0092" stroke="white" stroke-width="2" stroke-linecap="round" stroke-linejoin="round"/>
</svg>
