<svg width="16" height="17" viewBox="0 0 16 17" fill="none" xmlns="http://www.w3.org/2000/svg">
<path fill-rule="evenodd" clip-rule="evenodd" d="M10.89 2.3335H5.11065C3.09665 2.3335 1.83398 3.7595 1.83398 5.7775V11.2228C1.83398 13.2408 3.09065 14.6668 5.11065 14.6668H10.8893C12.91 14.6668 14.1673 13.2408 14.1673 11.2228V5.7775C14.1673 3.7595 12.91 2.3335 10.89 2.3335Z" stroke="#64748B" stroke-width="1.5" stroke-linecap="round" stroke-linejoin="round"/>
<path fill-rule="evenodd" clip-rule="evenodd" d="M10.89 2.3335H5.11065C3.09665 2.3335 1.83398 3.7595 1.83398 5.7775V11.2228C1.83398 13.2408 3.09065 14.6668 5.11065 14.6668H10.8893C12.91 14.6668 14.1673 13.2408 14.1673 11.2228V5.7775C14.1673 3.7595 12.91 2.3335 10.89 2.3335Z" stroke="black" stroke-opacity="0.2" stroke-width="1.5" stroke-linecap="round" stroke-linejoin="round"/>
<path fill-rule="evenodd" clip-rule="evenodd" d="M10.89 2.3335H5.11065C3.09665 2.3335 1.83398 3.7595 1.83398 5.7775V11.2228C1.83398 13.2408 3.09065 14.6668 5.11065 14.6668H10.8893C12.91 14.6668 14.1673 13.2408 14.1673 11.2228V5.7775C14.1673 3.7595 12.91 2.3335 10.89 2.3335Z" stroke="black" stroke-opacity="0.2" stroke-width="1.5" stroke-linecap="round" stroke-linejoin="round"/>
<path d="M5.62695 8.50021L7.20962 10.0822L10.3736 6.91821" stroke="#64748B" stroke-width="1.5" stroke-linecap="round" stroke-linejoin="round"/>
<path d="M5.62695 8.50021L7.20962 10.0822L10.3736 6.91821" stroke="black" stroke-opacity="0.2" stroke-width="1.5" stroke-linecap="round" stroke-linejoin="round"/>
<path d="M5.62695 8.50021L7.20962 10.0822L10.3736 6.91821" stroke="black" stroke-opacity="0.2" stroke-width="1.5" stroke-linecap="round" stroke-linejoin="round"/>
</svg>
