<svg width="22" height="22" viewBox="0 0 22 22" fill="none" xmlns="http://www.w3.org/2000/svg">
<path fill-rule="evenodd" clip-rule="evenodd" d="M14.9735 2.521H7.0269C4.25765 2.521 2.52148 4.48175 2.52148 7.2565V14.7438C2.52148 17.5186 4.2494 19.4793 7.0269 19.4793H14.9726C17.751 19.4793 19.4798 17.5186 19.4798 14.7438V7.2565C19.4798 4.48175 17.751 2.521 14.9735 2.521Z" stroke="#64748B" stroke-width="1.5" stroke-linecap="round" stroke-linejoin="round"/>
<path fill-rule="evenodd" clip-rule="evenodd" d="M14.9735 2.521H7.0269C4.25765 2.521 2.52148 4.48175 2.52148 7.2565V14.7438C2.52148 17.5186 4.2494 19.4793 7.0269 19.4793H14.9726C17.751 19.4793 19.4798 17.5186 19.4798 14.7438V7.2565C19.4798 4.48175 17.751 2.521 14.9735 2.521Z" stroke="black" stroke-opacity="0.2" stroke-width="1.5" stroke-linecap="round" stroke-linejoin="round"/>
<path fill-rule="evenodd" clip-rule="evenodd" d="M14.9735 2.521H7.0269C4.25765 2.521 2.52148 4.48175 2.52148 7.2565V14.7438C2.52148 17.5186 4.2494 19.4793 7.0269 19.4793H14.9726C17.751 19.4793 19.4798 17.5186 19.4798 14.7438V7.2565C19.4798 4.48175 17.751 2.521 14.9735 2.521Z" stroke="black" stroke-opacity="0.2" stroke-width="1.5" stroke-linecap="round" stroke-linejoin="round"/>
<path d="M7.7373 11.0002L9.91347 13.1755L14.264 8.82495" stroke="#64748B" stroke-width="1.5" stroke-linecap="round" stroke-linejoin="round"/>
<path d="M7.7373 11.0002L9.91347 13.1755L14.264 8.82495" stroke="black" stroke-opacity="0.2" stroke-width="1.5" stroke-linecap="round" stroke-linejoin="round"/>
<path d="M7.7373 11.0002L9.91347 13.1755L14.264 8.82495" stroke="black" stroke-opacity="0.2" stroke-width="1.5" stroke-linecap="round" stroke-linejoin="round"/>
</svg>
