<svg width="20" height="21" viewBox="0 0 20 21" fill="none" xmlns="http://www.w3.org/2000/svg">
<path d="M3.33301 6.33325H16.6663" stroke="#94A3B8" stroke-width="2" stroke-linecap="round" stroke-linejoin="round"/>
<path d="M8.33301 9.66675V14.6667" stroke="#94A3B8" stroke-width="1.5" stroke-linecap="round" stroke-linejoin="round"/>
<path d="M11.666 9.66675V14.6667" stroke="#94A3B8" stroke-width="1.5" stroke-linecap="round" stroke-linejoin="round"/>
<path d="M4.16602 6.33325L4.99935 16.3333C4.99935 16.7753 5.17494 17.1992 5.4875 17.5118C5.80006 17.8243 6.22399 17.9999 6.66602 17.9999H13.3327C13.7747 17.9999 14.1986 17.8243 14.5112 17.5118C14.8238 17.1992 14.9993 16.7753 14.9993 16.3333L15.8327 6.33325" stroke="#94A3B8" stroke-width="1.5" stroke-linecap="round" stroke-linejoin="round"/>
<path d="M7.5 6.33333V3.83333C7.5 3.61232 7.5878 3.40036 7.74408 3.24408C7.90036 3.0878 8.11232 3 8.33333 3H11.6667C11.8877 3 12.0996 3.0878 12.2559 3.24408C12.4122 3.40036 12.5 3.61232 12.5 3.83333V6.33333" stroke="#94A3B8" stroke-width="1.5" stroke-linecap="round" stroke-linejoin="round"/>
</svg>
